<?xml version="1.0" encoding="UTF-8"?>
<svg width="812px" height="236px" viewBox="0 0 812 236" version="1.1" xmlns="http://www.w3.org/2000/svg" xmlns:xlink="http://www.w3.org/1999/xlink">
    <!-- Generator: Sketch 52.6 (67491) - http://www.bohemiancoding.com/sketch -->
    <title>Group 2</title>
    <desc>Created with Sketch.</desc>
    <g id="Page-1" stroke="none" stroke-width="1" fill="none" fill-rule="evenodd">
        <g id="Desktop-HD" transform="translate(-310.000000, -396.000000)" fill="#000000">
            <g id="Group-2" transform="translate(310.000000, 396.000000)">
                <g id="Group" transform="translate(368.000000, 2.000000)">
                    <path d="M67.0144375,72.0374795 C68.163625,82.3832877 69.95125,88.769589 73.5265,93.8786301 L51.6919375,93.8786301 C49.52125,87.7477808 48.244375,82.5110137 47.47825,75.1029041 C46.3290625,65.5234521 42.626125,59.9035068 35.986375,59.3926027 C33.5603125,59.2648767 31.389625,59.2648767 28.9635625,59.2648767 L21.0469375,59.2648767 L21.0469375,93.8786301 L1,93.8786301 L1,5.74767123 L34.454125,5.74767123 C39.6893125,5.74767123 43.136875,5.87539726 47.733625,6.38630137 C60.502375,7.9190137 71.1004375,14.3053151 71.1004375,29.7601644 C71.1004375,41.0000548 64.7160625,48.2804384 53.60725,51.473589 C62.545375,54.7944658 65.9929375,61.8193973 67.0144375,72.0374795 Z M21.0469375,44.5763836 L31.389625,44.5763836 C34.19875,44.5763836 36.3694375,44.5763836 38.1570625,44.4486575 C44.669125,43.8100274 50.1596875,41.0000548 50.1596875,32.9533151 C50.1596875,24.9065753 45.43525,22.3520548 38.9231875,21.5856986 C37.1355625,21.4579726 34.964875,21.3302466 32.15575,21.3302466 L21.0469375,21.3302466 L21.0469375,44.5763836 Z M146.691438,58.6262466 C146.691438,60.414411 146.56375,62.5857534 146.308375,65.0125479 L98.55325,65.0125479 C99.7024375,78.0406027 105.320687,81.8723836 112.85425,81.8723836 C119.877063,81.8723836 124.6015,78.0406027 125.750688,71.6543014 L145.54225,71.6543014 C141.839313,87.3646027 129.070563,95.6667945 112.471187,95.6667945 C93.44575,95.6667945 78.5063125,84.043726 78.5063125,60.0312329 C78.5063125,39.5950685 92.168875,24.0124932 113.748063,24.0124932 C135.454937,24.0124932 146.691438,40.4891507 146.691438,58.6262466 Z M112.85425,37.8069041 C105.70375,37.8069041 100.723937,42.2773151 99.064,52.3676712 L125.878375,52.3676712 C124.729187,42.7882192 120.260125,37.8069041 112.85425,37.8069041 Z M200.447875,24.0124932 C219.217937,24.0124932 230.582125,38.3178082 230.582125,58.3707945 C230.582125,82.8941918 215.642687,95.6667945 198.1495,95.6667945 C192.53125,95.6667945 185.763813,94.2618082 182.31625,92.0904658 L177.847188,84.9378082 L177.847188,93.8786301 L157.80025,93.8786301 L157.80025,0 L177.847188,0 L177.847188,36.0187397 L182.954687,28.4829041 C186.785312,25.5452055 193.55275,24.0124932 200.447875,24.0124932 Z M193.425062,81.8723836 C203.129313,81.8723836 210.024438,74.464274 210.024438,59.6480548 C210.024438,46.2368219 203.512375,37.8069041 194.0635,37.8069041 C184.87,37.8069041 177.847188,43.4268493 177.847188,59.0094247 L177.847188,62.0748493 C177.847188,76.7633425 185.763813,81.8723836 193.425062,81.8723836 Z M281.146375,93.8786301 L279.741812,83.916 L276.677312,91.1963836 C271.825187,94.2618082 266.07925,95.6667945 259.822563,95.6667945 C248.330687,95.6667945 237.988,88.641863 237.988,75.7415342 C237.988,60.9253151 251.139812,52.2399452 275.145062,52.2399452 L279.486437,52.2399452 L279.486437,51.090411 C279.486437,49.3022466 279.486437,47.5140822 279.231063,45.2150137 C278.848,41.1277808 275.7835,37.8069041 269.782187,37.8069041 C263.5255,37.8069041 260.077937,41.6386849 259.567187,48.4081644 L240.414062,48.4081644 C240.797125,32.825589 253.948937,24.0124932 270.548313,24.0124932 C290.722937,24.0124932 298.001125,32.825589 299.022625,44.9595616 C299.278,48.1527123 299.405687,51.9844932 299.405687,55.944 L299.405687,76.6356164 C299.405687,81.7446575 299.661063,86.3427945 300.682563,93.8786301 L281.146375,93.8786301 Z M267.739188,81.8723836 C273.7405,81.8723836 279.486438,77.5296986 279.486438,69.0997808 L279.486438,64.1184658 C267.10075,63.0966575 258.545687,66.1620822 258.545687,74.0810959 C258.545687,79.190137 262.248625,81.8723836 267.739188,81.8723836 Z M340.64875,24.0124932 C357.120437,24.0124932 366.569313,33.2087671 368.22925,45.5981918 L348.437687,45.5981918 C347.2885,39.9782466 344.351688,36.7850959 339.371875,36.7850959 C335.0305,36.7850959 332.349063,39.4673425 332.349063,43.0436712 C332.349063,47.6418082 336.052,50.1963288 348.182312,53.2617534 C361.334125,56.5826301 369.7615,62.0748493 369.7615,74.8474521 C369.7615,89.0250411 356.865063,95.6667945 340.904125,95.6667945 C323.538625,95.6667945 311.408312,88.2586849 309.620687,72.9315616 L329.41225,72.9315616 C330.816812,79.317863 335.413563,82.7664658 341.031812,82.7664658 C345.883938,82.7664658 349.714562,80.7228493 349.714562,76.3801644 C349.714562,71.5265753 345.373187,68.8443288 333.370563,66.0343562 C320.601812,62.8412055 312.302125,57.0935342 312.302125,45.4704658 C312.302125,32.1869589 323.538625,24.0124932 340.64875,24.0124932 Z M443.82025,58.6262466 C443.82025,60.414411 443.692563,62.5857534 443.437188,65.0125479 L395.682063,65.0125479 C396.83125,78.0406027 402.4495,81.8723836 409.983063,81.8723836 C417.005875,81.8723836 421.730313,78.0406027 422.8795,71.6543014 L442.671063,71.6543014 C438.968125,87.3646027 426.199375,95.6667945 409.6,95.6667945 C390.574563,95.6667945 375.635125,84.043726 375.635125,60.0312329 C375.635125,39.5950685 389.297688,24.0124932 410.876875,24.0124932 C432.58375,24.0124932 443.82025,40.4891507 443.82025,58.6262466 Z M409.983063,37.8069041 C402.832563,37.8069041 397.85275,42.2773151 396.192813,52.3676712 L423.007188,52.3676712 C421.858,42.7882192 417.388938,37.8069041 409.983063,37.8069041 Z" id="Rebase"></path>
                    <path d="M35.8801875,140.470411 C57.8424375,140.470411 67.5466875,152.73211 69.462,168.697863 L49.287375,168.697863 C48.265875,160.523397 43.669125,155.28663 35.24175,155.28663 C28.9850625,155.28663 24.516,158.224329 24.516,164.61063 C24.516,171.252384 28.9850625,174.828712 43.158375,178.149589 C62.566875,182.747726 70.99425,191.944 70.99425,205.866137 C70.99425,222.981425 55.0333125,232.177699 37.4124375,232.177699 C15.83325,232.177699 1.53225,222.981425 0,203.950247 L20.174625,203.950247 C21.96225,213.018795 28.9850625,217.361479 37.029375,217.361479 C44.3075625,217.361479 50.0535,213.529699 50.0535,207.526575 C50.0535,201.395726 45.9675,197.180767 33.964875,194.370795 C15.067125,189.644932 3.57525,183.386356 3.57525,166.526521 C3.57525,150.049863 18.7700625,140.470411 35.8801875,140.470411 Z M105.2145,175.595068 L105.2145,204.205699 C105.2145,206.504767 105.2145,208.803836 105.342188,210.592 C105.852938,217.361479 108.151313,218.894192 118.366312,218.255562 L118.366312,231.028164 C114.280312,231.666795 110.322,232.049973 105.980625,232.049973 C91.0411875,232.049973 86.1890625,227.196384 85.4229375,217.233753 C85.1675625,213.785151 85.1675625,210.719726 85.1675625,206.887945 L85.1675625,175.595068 L74.824875,175.595068 L74.824875,162.822466 L85.1675625,162.822466 L85.1675625,145.707178 L105.2145,145.707178 L105.2145,162.822466 L119.643187,162.822466 L119.643187,175.595068 L105.2145,175.595068 Z M194.468063,162.311562 L194.468063,230.389534 L174.548812,230.389534 L174.548812,218.766466 L168.802875,227.835014 C164.206125,230.900438 159.354,232.177699 152.969625,232.177699 C138.924,232.177699 130.496625,224.258685 128.964375,214.934685 C128.453625,211.486082 128.325938,207.782027 128.325938,202.289808 L128.325938,162.311562 L148.245188,162.311562 L148.245188,197.947123 C148.245188,200.118466 148.372875,203.822521 148.755938,207.271123 C149.64975,214.168329 153.225,218.255562 161.013938,218.255562 C169.185938,218.255562 174.548812,211.23063 174.548812,198.713479 L174.548812,162.311562 L194.468063,162.311562 Z M278.231063,136.510904 L278.231063,230.389534 L258.184125,230.389534 L258.184125,220.171452 L253.076625,227.707288 C249.246,230.644986 242.478563,232.177699 235.583438,232.177699 C216.813375,232.177699 205.449188,217.872384 205.449188,197.691671 C205.449188,173.296 220.388625,160.523397 237.881813,160.523397 C243.500063,160.523397 250.2675,161.928384 253.715063,164.099726 L258.184125,171.252384 L258.184125,136.510904 L278.231063,136.510904 Z M241.967813,218.383288 C251.033625,218.383288 258.184125,212.763342 258.184125,197.180767 L258.184125,193.987616 C258.184125,179.426849 250.139813,174.317808 242.60625,174.317808 C232.902,174.317808 226.006875,181.725918 226.006875,196.542137 C226.006875,209.95337 232.518938,218.383288 241.967813,218.383288 Z M303.3855,136 C309.769875,136 314.11125,139.959507 314.11125,146.090356 C314.11125,152.348932 309.769875,156.308438 303.3855,156.308438 C297.001125,156.308438 292.787438,152.348932 292.787438,146.090356 C292.787438,139.959507 297.001125,136 303.3855,136 Z M313.472813,230.389534 L293.425875,230.389534 L293.425875,162.311562 L313.472813,162.311562 L313.472813,230.389534 Z M360.334125,160.523397 C382.807125,160.523397 396.214313,175.084164 396.214313,196.286685 C396.214313,217.489205 382.807125,232.177699 360.334125,232.177699 C337.733438,232.177699 324.453938,217.489205 324.453938,196.286685 C324.453938,175.084164 337.733438,160.523397 360.334125,160.523397 Z M360.334125,218.383288 C369.783,218.383288 375.528938,210.464274 375.528938,196.286685 C375.528938,182.109096 369.783,174.317808 360.334125,174.317808 C350.757563,174.317808 345.011625,182.109096 345.011625,196.286685 C345.011625,210.464274 350.757563,218.383288 360.334125,218.383288 Z" id="Studio"></path>
                </g>
                <g id="Group">
                    <rect id="Rectangle" x="0" y="107.425" width="284" height="21.225"></rect>
                    <ellipse id="Oval" cx="205.9" cy="49.525" rx="49.7" ry="49.525"></ellipse>
                    <path d="M78.1,236 C50.6514479,236 28.4,213.826902 28.4,186.475 C28.4,159.123098 50.6514479,136.95 78.1,136.95 C105.548552,136.95 127.8,159.123098 127.8,186.475 C127.8,213.826902 105.548552,236 78.1,236 Z M78.1,220.435 C96.9218643,220.435 112.18,205.23059 112.18,186.475 C112.18,167.71941 96.9218643,152.515 78.1,152.515 C59.2781357,152.515 44.02,167.71941 44.02,186.475 C44.02,205.23059 59.2781357,220.435 78.1,220.435 Z" id="Oval-2"></path>
                </g>
            </g>
        </g>
    </g>
</svg>